<mxfile host="app.diagrams.net" modified="2021-01-08T14:27:12.099Z" agent="5.0 (Windows NT 10.0; Win64; x64) AppleWebKit/537.36 (KHTML, like Gecko) Chrome/87.0.4280.88 Safari/537.36 Edg/87.0.664.66" etag="4CU7SZ7Nyuhi7mULld6b" version="14.1.8" type="github" pages="8">
  <diagram id="r1og0uCHNFm6T4KjdNjF" name="UseCase: Igranje Milijunaša">
    <mxGraphModel dx="1102" dy="614" grid="1" gridSize="10" guides="1" tooltips="1" connect="1" arrows="1" fold="1" page="1" pageScale="1" pageWidth="827" pageHeight="1169" math="0" shadow="0">
      <root>
        <mxCell id="0" />
        <mxCell id="1" parent="0" />
        <mxCell id="4kmgBPgbUo3qxSBK6bsD-1" value="Igrač" style="shape=umlActor;verticalLabelPosition=bottom;verticalAlign=top;html=1;outlineConnect=0;" parent="1" vertex="1">
          <mxGeometry x="90" y="130" width="30" height="60" as="geometry" />
        </mxCell>
        <mxCell id="4kmgBPgbUo3qxSBK6bsD-2" value="Igranje Milijunaša" style="ellipse;whiteSpace=wrap;html=1;" parent="1" vertex="1">
          <mxGeometry x="270" y="130" width="140" height="70" as="geometry" />
        </mxCell>
        <mxCell id="4kmgBPgbUo3qxSBK6bsD-3" value="Unos igrača" style="ellipse;whiteSpace=wrap;html=1;" parent="1" vertex="1">
          <mxGeometry x="510" y="70" width="140" height="70" as="geometry" />
        </mxCell>
        <mxCell id="4kmgBPgbUo3qxSBK6bsD-6" value="Use" style="endArrow=open;endSize=12;dashed=1;html=1;" parent="1" source="4kmgBPgbUo3qxSBK6bsD-2" edge="1">
          <mxGeometry width="160" relative="1" as="geometry">
            <mxPoint x="350" y="110" as="sourcePoint" />
            <mxPoint x="510" y="110" as="targetPoint" />
          </mxGeometry>
        </mxCell>
        <mxCell id="4kmgBPgbUo3qxSBK6bsD-7" value="Postavljanje pitanja" style="ellipse;whiteSpace=wrap;html=1;" parent="1" vertex="1">
          <mxGeometry x="500" y="200" width="140" height="70" as="geometry" />
        </mxCell>
        <mxCell id="4kmgBPgbUo3qxSBK6bsD-8" value="Odgovor na pitanje" style="ellipse;whiteSpace=wrap;html=1;" parent="1" vertex="1">
          <mxGeometry x="410" y="300" width="140" height="70" as="geometry" />
        </mxCell>
        <mxCell id="4kmgBPgbUo3qxSBK6bsD-9" value="Izračun osvojenog iznosa" style="ellipse;whiteSpace=wrap;html=1;" parent="1" vertex="1">
          <mxGeometry x="230" y="370" width="140" height="70" as="geometry" />
        </mxCell>
        <mxCell id="4kmgBPgbUo3qxSBK6bsD-10" value="Use" style="endArrow=open;endSize=12;dashed=1;html=1;exitX=0.96;exitY=0.708;exitDx=0;exitDy=0;exitPerimeter=0;" parent="1" source="4kmgBPgbUo3qxSBK6bsD-2" target="4kmgBPgbUo3qxSBK6bsD-7" edge="1">
          <mxGeometry width="160" relative="1" as="geometry">
            <mxPoint x="408.76991100065175" y="155.98620526449486" as="sourcePoint" />
            <mxPoint x="520" y="120" as="targetPoint" />
            <Array as="points" />
          </mxGeometry>
        </mxCell>
        <mxCell id="4kmgBPgbUo3qxSBK6bsD-11" value="Use" style="endArrow=open;endSize=12;dashed=1;html=1;entryX=0.057;entryY=0.3;entryDx=0;entryDy=0;entryPerimeter=0;exitX=0.642;exitY=0.994;exitDx=0;exitDy=0;exitPerimeter=0;" parent="1" source="4kmgBPgbUo3qxSBK6bsD-2" target="4kmgBPgbUo3qxSBK6bsD-8" edge="1">
          <mxGeometry width="160" relative="1" as="geometry">
            <mxPoint x="269.99991100065176" y="285.98620526449486" as="sourcePoint" />
            <mxPoint x="381.23" y="250" as="targetPoint" />
          </mxGeometry>
        </mxCell>
        <mxCell id="4kmgBPgbUo3qxSBK6bsD-12" value="Use" style="endArrow=open;endSize=12;dashed=1;html=1;" parent="1" source="4kmgBPgbUo3qxSBK6bsD-2" edge="1">
          <mxGeometry width="160" relative="1" as="geometry">
            <mxPoint x="219.99991100065174" y="299.99620526449485" as="sourcePoint" />
            <mxPoint x="320" y="370" as="targetPoint" />
          </mxGeometry>
        </mxCell>
        <mxCell id="OHEp3vlo20Idoj4V5rPn-1" value="" style="endArrow=none;html=1;exitX=0.5;exitY=0.5;exitDx=0;exitDy=0;exitPerimeter=0;" parent="1" source="4kmgBPgbUo3qxSBK6bsD-1" target="4kmgBPgbUo3qxSBK6bsD-2" edge="1">
          <mxGeometry width="50" height="50" relative="1" as="geometry">
            <mxPoint x="110" y="190" as="sourcePoint" />
            <mxPoint x="160" y="140" as="targetPoint" />
          </mxGeometry>
        </mxCell>
      </root>
    </mxGraphModel>
  </diagram>
  <diagram id="1D83XkJCZ689sOul0O0H" name="Activity: Igranje Milijunaša">
    <mxGraphModel dx="1102" dy="614" grid="1" gridSize="10" guides="1" tooltips="1" connect="1" arrows="1" fold="1" page="1" pageScale="1" pageWidth="827" pageHeight="1169" math="0" shadow="0">
      <root>
        <mxCell id="8BKieX1xrE59y4DQv1cV-0" />
        <mxCell id="8BKieX1xrE59y4DQv1cV-1" parent="8BKieX1xrE59y4DQv1cV-0" />
        <mxCell id="Q4W9A7SywVuZ4GrKVSb1-0" value="" style="ellipse;html=1;shape=startState;fillColor=#000000;strokeColor=#ff0000;" parent="8BKieX1xrE59y4DQv1cV-1" vertex="1">
          <mxGeometry x="350" y="20" width="30" height="30" as="geometry" />
        </mxCell>
        <mxCell id="Q4W9A7SywVuZ4GrKVSb1-1" value="" style="edgeStyle=orthogonalEdgeStyle;html=1;verticalAlign=bottom;endArrow=open;endSize=8;strokeColor=#ff0000;" parent="8BKieX1xrE59y4DQv1cV-1" source="Q4W9A7SywVuZ4GrKVSb1-0" edge="1">
          <mxGeometry relative="1" as="geometry">
            <mxPoint x="365" y="110" as="targetPoint" />
          </mxGeometry>
        </mxCell>
        <mxCell id="Q4W9A7SywVuZ4GrKVSb1-2" value="" style="ellipse;html=1;shape=endState;fillColor=#000000;strokeColor=#ff0000;" parent="8BKieX1xrE59y4DQv1cV-1" vertex="1">
          <mxGeometry x="460" y="900" width="30" height="30" as="geometry" />
        </mxCell>
        <mxCell id="Q4W9A7SywVuZ4GrKVSb1-4" value="Unos igrača" style="rounded=1;whiteSpace=wrap;html=1;arcSize=40;fontColor=#000000;fillColor=#ffffc0;strokeColor=#ff0000;" parent="8BKieX1xrE59y4DQv1cV-1" vertex="1">
          <mxGeometry x="305" y="110" width="120" height="40" as="geometry" />
        </mxCell>
        <mxCell id="Q4W9A7SywVuZ4GrKVSb1-5" value="" style="edgeStyle=orthogonalEdgeStyle;html=1;verticalAlign=bottom;endArrow=open;endSize=8;strokeColor=#ff0000;" parent="8BKieX1xrE59y4DQv1cV-1" source="Q4W9A7SywVuZ4GrKVSb1-4" target="Q4W9A7SywVuZ4GrKVSb1-9" edge="1">
          <mxGeometry relative="1" as="geometry">
            <mxPoint x="365" y="210" as="targetPoint" />
          </mxGeometry>
        </mxCell>
        <mxCell id="Q4W9A7SywVuZ4GrKVSb1-9" value="Postavljanje pitanja" style="rounded=1;whiteSpace=wrap;html=1;arcSize=40;fontColor=#000000;fillColor=#ffffc0;strokeColor=#ff0000;" parent="8BKieX1xrE59y4DQv1cV-1" vertex="1">
          <mxGeometry x="305" y="190" width="120" height="50" as="geometry" />
        </mxCell>
        <mxCell id="Q4W9A7SywVuZ4GrKVSb1-11" value="Igrač odgovara" style="rhombus;whiteSpace=wrap;html=1;fillColor=#ffffc0;strokeColor=#ff0000;" parent="8BKieX1xrE59y4DQv1cV-1" vertex="1">
          <mxGeometry x="292.5" y="300" width="145" height="80" as="geometry" />
        </mxCell>
        <mxCell id="Q4W9A7SywVuZ4GrKVSb1-12" value="no" style="edgeStyle=orthogonalEdgeStyle;html=1;align=left;verticalAlign=bottom;endArrow=open;endSize=8;strokeColor=#ff0000;entryX=0.5;entryY=0;entryDx=0;entryDy=0;" parent="8BKieX1xrE59y4DQv1cV-1" source="Q4W9A7SywVuZ4GrKVSb1-11" target="Q4W9A7SywVuZ4GrKVSb1-17" edge="1">
          <mxGeometry x="-1" relative="1" as="geometry">
            <mxPoint x="504" y="330" as="targetPoint" />
          </mxGeometry>
        </mxCell>
        <mxCell id="Q4W9A7SywVuZ4GrKVSb1-13" value="yes" style="edgeStyle=orthogonalEdgeStyle;html=1;align=left;verticalAlign=top;endArrow=open;endSize=8;strokeColor=#ff0000;entryX=0.5;entryY=0;entryDx=0;entryDy=0;" parent="8BKieX1xrE59y4DQv1cV-1" source="Q4W9A7SywVuZ4GrKVSb1-11" target="Q4W9A7SywVuZ4GrKVSb1-19" edge="1">
          <mxGeometry x="-1" relative="1" as="geometry">
            <mxPoint x="364" y="410" as="targetPoint" />
          </mxGeometry>
        </mxCell>
        <mxCell id="Q4W9A7SywVuZ4GrKVSb1-16" value="" style="edgeStyle=orthogonalEdgeStyle;html=1;verticalAlign=bottom;endArrow=open;endSize=8;strokeColor=#ff0000;entryX=0.5;entryY=0;entryDx=0;entryDy=0;" parent="8BKieX1xrE59y4DQv1cV-1" target="Q4W9A7SywVuZ4GrKVSb1-11" edge="1">
          <mxGeometry relative="1" as="geometry">
            <mxPoint x="365" y="290" as="targetPoint" />
            <mxPoint x="364" y="240" as="sourcePoint" />
            <Array as="points">
              <mxPoint x="365" y="240" />
            </Array>
          </mxGeometry>
        </mxCell>
        <mxCell id="Q4W9A7SywVuZ4GrKVSb1-17" value="Izračun osvojenog iznosa" style="rounded=1;whiteSpace=wrap;html=1;arcSize=40;fontColor=#000000;fillColor=#ffffc0;strokeColor=#ff0000;" parent="8BKieX1xrE59y4DQv1cV-1" vertex="1">
          <mxGeometry x="500" y="770" width="120" height="60" as="geometry" />
        </mxCell>
        <mxCell id="Q4W9A7SywVuZ4GrKVSb1-18" value="" style="edgeStyle=orthogonalEdgeStyle;html=1;verticalAlign=bottom;endArrow=open;endSize=8;strokeColor=#ff0000;entryX=0.5;entryY=0;entryDx=0;entryDy=0;" parent="8BKieX1xrE59y4DQv1cV-1" source="Q4W9A7SywVuZ4GrKVSb1-17" target="Q4W9A7SywVuZ4GrKVSb1-2" edge="1">
          <mxGeometry relative="1" as="geometry">
            <mxPoint x="550" y="730" as="targetPoint" />
            <Array as="points">
              <mxPoint x="550" y="850" />
              <mxPoint x="475" y="850" />
            </Array>
          </mxGeometry>
        </mxCell>
        <mxCell id="Q4W9A7SywVuZ4GrKVSb1-19" value="Odgovaranje&lt;br&gt;" style="rounded=1;whiteSpace=wrap;html=1;arcSize=40;fontColor=#000000;fillColor=#ffffc0;strokeColor=#ff0000;" parent="8BKieX1xrE59y4DQv1cV-1" vertex="1">
          <mxGeometry x="305" y="440" width="120" height="40" as="geometry" />
        </mxCell>
        <mxCell id="Q4W9A7SywVuZ4GrKVSb1-20" value="" style="edgeStyle=orthogonalEdgeStyle;html=1;verticalAlign=bottom;endArrow=open;endSize=8;strokeColor=#ff0000;entryX=0.5;entryY=0;entryDx=0;entryDy=0;" parent="8BKieX1xrE59y4DQv1cV-1" source="Q4W9A7SywVuZ4GrKVSb1-19" target="Q4W9A7SywVuZ4GrKVSb1-21" edge="1">
          <mxGeometry relative="1" as="geometry">
            <mxPoint x="365" y="510" as="targetPoint" />
          </mxGeometry>
        </mxCell>
        <mxCell id="Q4W9A7SywVuZ4GrKVSb1-21" value="Odgovor točan" style="rhombus;whiteSpace=wrap;html=1;fillColor=#ffffc0;strokeColor=#ff0000;" parent="8BKieX1xrE59y4DQv1cV-1" vertex="1">
          <mxGeometry x="230" y="540" width="95" height="60" as="geometry" />
        </mxCell>
        <mxCell id="Q4W9A7SywVuZ4GrKVSb1-22" value="no" style="edgeStyle=orthogonalEdgeStyle;html=1;align=left;verticalAlign=bottom;endArrow=open;endSize=8;strokeColor=#ff0000;" parent="8BKieX1xrE59y4DQv1cV-1" source="Q4W9A7SywVuZ4GrKVSb1-21" target="Q4W9A7SywVuZ4GrKVSb1-17" edge="1">
          <mxGeometry x="-1" relative="1" as="geometry">
            <mxPoint x="530" y="840" as="targetPoint" />
            <Array as="points">
              <mxPoint x="540" y="570" />
            </Array>
          </mxGeometry>
        </mxCell>
        <mxCell id="Q4W9A7SywVuZ4GrKVSb1-23" value="yes" style="edgeStyle=orthogonalEdgeStyle;html=1;align=left;verticalAlign=top;endArrow=open;endSize=8;strokeColor=#ff0000;entryX=0.5;entryY=0;entryDx=0;entryDy=0;" parent="8BKieX1xrE59y4DQv1cV-1" source="Q4W9A7SywVuZ4GrKVSb1-21" target="Q4W9A7SywVuZ4GrKVSb1-27" edge="1">
          <mxGeometry x="-1" relative="1" as="geometry">
            <mxPoint x="285" y="640" as="targetPoint" />
          </mxGeometry>
        </mxCell>
        <mxCell id="Q4W9A7SywVuZ4GrKVSb1-27" value="Odgovoreno na sva pitanja" style="rhombus;whiteSpace=wrap;html=1;fillColor=#ffffc0;strokeColor=#ff0000;rotation=0;" parent="8BKieX1xrE59y4DQv1cV-1" vertex="1">
          <mxGeometry x="197.5" y="650" width="160" height="60" as="geometry" />
        </mxCell>
        <mxCell id="Q4W9A7SywVuZ4GrKVSb1-28" value="no" style="edgeStyle=orthogonalEdgeStyle;html=1;align=left;verticalAlign=bottom;endArrow=open;endSize=8;strokeColor=#ff0000;entryX=0;entryY=0.5;entryDx=0;entryDy=0;exitX=0;exitY=0.5;exitDx=0;exitDy=0;" parent="8BKieX1xrE59y4DQv1cV-1" source="Q4W9A7SywVuZ4GrKVSb1-27" target="Q4W9A7SywVuZ4GrKVSb1-9" edge="1">
          <mxGeometry x="-1" relative="1" as="geometry">
            <mxPoint x="80" y="300" as="targetPoint" />
            <mxPoint x="180" y="680" as="sourcePoint" />
            <Array as="points">
              <mxPoint x="160" y="680" />
              <mxPoint x="160" y="215" />
            </Array>
          </mxGeometry>
        </mxCell>
        <mxCell id="Q4W9A7SywVuZ4GrKVSb1-29" value="yes" style="edgeStyle=orthogonalEdgeStyle;html=1;align=left;verticalAlign=top;endArrow=open;endSize=8;strokeColor=#ff0000;entryX=0.25;entryY=0;entryDx=0;entryDy=0;exitX=0.5;exitY=1;exitDx=0;exitDy=0;" parent="8BKieX1xrE59y4DQv1cV-1" source="Q4W9A7SywVuZ4GrKVSb1-27" target="Q4W9A7SywVuZ4GrKVSb1-17" edge="1">
          <mxGeometry x="-1" relative="1" as="geometry">
            <mxPoint x="500" y="800" as="targetPoint" />
            <Array as="points">
              <mxPoint x="278" y="750" />
              <mxPoint x="530" y="750" />
            </Array>
          </mxGeometry>
        </mxCell>
      </root>
    </mxGraphModel>
  </diagram>
  <diagram id="CbQQVxnavWE6Y4liIShK" name="Dijagram aktivnosti s podaktivnostima">
    <mxGraphModel dx="1102" dy="614" grid="1" gridSize="10" guides="1" tooltips="1" connect="1" arrows="1" fold="1" page="1" pageScale="1" pageWidth="827" pageHeight="1169" math="0" shadow="0">
      <root>
        <mxCell id="wAXHmxslM8Cl57u_N9g3-0" />
        <mxCell id="wAXHmxslM8Cl57u_N9g3-1" parent="wAXHmxslM8Cl57u_N9g3-0" />
        <mxCell id="wAXHmxslM8Cl57u_N9g3-3" value="" style="ellipse;html=1;shape=startState;fillColor=#000000;strokeColor=#ff0000;" parent="wAXHmxslM8Cl57u_N9g3-1" vertex="1">
          <mxGeometry x="340" y="10" width="30" height="30" as="geometry" />
        </mxCell>
        <mxCell id="wAXHmxslM8Cl57u_N9g3-4" value="" style="edgeStyle=orthogonalEdgeStyle;html=1;verticalAlign=bottom;endArrow=open;endSize=8;strokeColor=#ff0000;" parent="wAXHmxslM8Cl57u_N9g3-1" source="wAXHmxslM8Cl57u_N9g3-3" edge="1">
          <mxGeometry relative="1" as="geometry">
            <mxPoint x="355" y="100" as="targetPoint" />
          </mxGeometry>
        </mxCell>
        <mxCell id="PxOuT1fJSN0E9udScYd1-0" value="Unos igrača" style="swimlane;html=1;fontStyle=1;align=center;verticalAlign=middle;childLayout=stackLayout;horizontal=1;startSize=30;horizontalStack=0;resizeParent=0;resizeLast=1;container=0;fontColor=#000000;collapsible=0;rounded=1;arcSize=30;strokeColor=#ff0000;fillColor=#ffffc0;swimlaneFillColor=#ffffc0;dropTarget=0;" parent="wAXHmxslM8Cl57u_N9g3-1" vertex="1">
          <mxGeometry x="275" y="100" width="160" height="60" as="geometry" />
        </mxCell>
        <mxCell id="PxOuT1fJSN0E9udScYd1-1" value="Include / Unos igrača" style="text;html=1;strokeColor=none;fillColor=none;align=center;verticalAlign=middle;spacingLeft=4;spacingRight=4;whiteSpace=wrap;overflow=hidden;rotatable=0;fontColor=#000000;" parent="PxOuT1fJSN0E9udScYd1-0" vertex="1">
          <mxGeometry y="30" width="160" height="30" as="geometry" />
        </mxCell>
        <mxCell id="PxOuT1fJSN0E9udScYd1-2" value="" style="edgeStyle=orthogonalEdgeStyle;html=1;verticalAlign=bottom;endArrow=open;endSize=8;strokeColor=#ff0000;" parent="wAXHmxslM8Cl57u_N9g3-1" source="PxOuT1fJSN0E9udScYd1-0" edge="1">
          <mxGeometry relative="1" as="geometry">
            <mxPoint x="355" y="210" as="targetPoint" />
          </mxGeometry>
        </mxCell>
        <mxCell id="jcJg4d79mtAPE0NVaKH0-0" value="Postavlajnje pitanja" style="swimlane;html=1;fontStyle=1;align=center;verticalAlign=middle;childLayout=stackLayout;horizontal=1;startSize=30;horizontalStack=0;resizeParent=0;resizeLast=1;container=0;fontColor=#000000;collapsible=0;rounded=1;arcSize=30;strokeColor=#ff0000;fillColor=#ffffc0;swimlaneFillColor=#ffffc0;dropTarget=0;" parent="wAXHmxslM8Cl57u_N9g3-1" vertex="1">
          <mxGeometry x="275" y="210" width="160" height="60" as="geometry" />
        </mxCell>
        <mxCell id="jcJg4d79mtAPE0NVaKH0-1" value="Include / Postavljanje pitanja" style="text;html=1;strokeColor=none;fillColor=none;align=center;verticalAlign=middle;spacingLeft=4;spacingRight=4;whiteSpace=wrap;overflow=hidden;rotatable=0;fontColor=#000000;" parent="jcJg4d79mtAPE0NVaKH0-0" vertex="1">
          <mxGeometry y="30" width="160" height="30" as="geometry" />
        </mxCell>
        <mxCell id="jcJg4d79mtAPE0NVaKH0-2" value="" style="edgeStyle=orthogonalEdgeStyle;html=1;verticalAlign=bottom;endArrow=open;endSize=8;strokeColor=#ff0000;entryX=0.5;entryY=0;entryDx=0;entryDy=0;" parent="wAXHmxslM8Cl57u_N9g3-1" source="jcJg4d79mtAPE0NVaKH0-0" target="IWJHYMp2H40F229CH8A2-0" edge="1">
          <mxGeometry relative="1" as="geometry">
            <mxPoint x="355" y="320" as="targetPoint" />
            <Array as="points">
              <mxPoint x="350" y="290" />
              <mxPoint x="350" y="290" />
            </Array>
          </mxGeometry>
        </mxCell>
        <mxCell id="IWJHYMp2H40F229CH8A2-0" value="Igrač odgovara" style="rhombus;whiteSpace=wrap;html=1;fillColor=#ffffc0;strokeColor=#ff0000;" parent="wAXHmxslM8Cl57u_N9g3-1" vertex="1">
          <mxGeometry x="280" y="330" width="140" height="70" as="geometry" />
        </mxCell>
        <mxCell id="IWJHYMp2H40F229CH8A2-1" value="no" style="edgeStyle=orthogonalEdgeStyle;html=1;align=left;verticalAlign=bottom;endArrow=open;endSize=8;strokeColor=#ff0000;" parent="wAXHmxslM8Cl57u_N9g3-1" source="IWJHYMp2H40F229CH8A2-0" edge="1">
          <mxGeometry x="-1" relative="1" as="geometry">
            <mxPoint x="630" y="920" as="targetPoint" />
          </mxGeometry>
        </mxCell>
        <mxCell id="IWJHYMp2H40F229CH8A2-2" value="yes" style="edgeStyle=orthogonalEdgeStyle;html=1;align=left;verticalAlign=top;endArrow=open;endSize=8;strokeColor=#ff0000;entryX=0.5;entryY=0;entryDx=0;entryDy=0;" parent="wAXHmxslM8Cl57u_N9g3-1" source="IWJHYMp2H40F229CH8A2-0" target="E_8Ji15eINzWiKu_0gxi-0" edge="1">
          <mxGeometry x="-1" relative="1" as="geometry">
            <mxPoint x="350" y="420" as="targetPoint" />
          </mxGeometry>
        </mxCell>
        <mxCell id="E_8Ji15eINzWiKu_0gxi-0" value="Odgovaranje" style="swimlane;html=1;fontStyle=1;align=center;verticalAlign=middle;childLayout=stackLayout;horizontal=1;startSize=30;horizontalStack=0;resizeParent=0;resizeLast=1;container=0;fontColor=#000000;collapsible=0;rounded=1;arcSize=30;strokeColor=#ff0000;fillColor=#ffffc0;swimlaneFillColor=#ffffc0;dropTarget=0;" parent="wAXHmxslM8Cl57u_N9g3-1" vertex="1">
          <mxGeometry x="270" y="440" width="160" height="60" as="geometry" />
        </mxCell>
        <mxCell id="E_8Ji15eINzWiKu_0gxi-1" value="Include / Odgovaranje" style="text;html=1;strokeColor=none;fillColor=none;align=center;verticalAlign=middle;spacingLeft=4;spacingRight=4;whiteSpace=wrap;overflow=hidden;rotatable=0;fontColor=#000000;" parent="E_8Ji15eINzWiKu_0gxi-0" vertex="1">
          <mxGeometry y="30" width="160" height="30" as="geometry" />
        </mxCell>
        <mxCell id="E_8Ji15eINzWiKu_0gxi-2" value="" style="edgeStyle=orthogonalEdgeStyle;html=1;verticalAlign=bottom;endArrow=open;endSize=8;strokeColor=#ff0000;entryX=0.5;entryY=0;entryDx=0;entryDy=0;" parent="wAXHmxslM8Cl57u_N9g3-1" source="E_8Ji15eINzWiKu_0gxi-0" target="LAQwIaWgyO3f-h2tZl_8-0" edge="1">
          <mxGeometry relative="1" as="geometry">
            <mxPoint x="350" y="540" as="targetPoint" />
          </mxGeometry>
        </mxCell>
        <mxCell id="LAQwIaWgyO3f-h2tZl_8-0" value="Odgovor točan" style="rhombus;whiteSpace=wrap;html=1;fillColor=#ffffc0;strokeColor=#ff0000;" parent="wAXHmxslM8Cl57u_N9g3-1" vertex="1">
          <mxGeometry x="212.5" y="570" width="150" height="60" as="geometry" />
        </mxCell>
        <mxCell id="vjihE0JekyVUu6mDylmC-0" value="no" style="edgeStyle=orthogonalEdgeStyle;html=1;align=left;verticalAlign=bottom;endArrow=open;endSize=8;strokeColor=#ff0000;exitX=1;exitY=0.5;exitDx=0;exitDy=0;" parent="wAXHmxslM8Cl57u_N9g3-1" source="LAQwIaWgyO3f-h2tZl_8-0" edge="1">
          <mxGeometry x="-1" relative="1" as="geometry">
            <mxPoint x="575" y="920" as="targetPoint" />
            <mxPoint x="400" y="820" as="sourcePoint" />
          </mxGeometry>
        </mxCell>
        <mxCell id="vjihE0JekyVUu6mDylmC-1" value="yes" style="edgeStyle=orthogonalEdgeStyle;html=1;align=left;verticalAlign=top;endArrow=open;endSize=8;strokeColor=#ff0000;exitX=0.5;exitY=1;exitDx=0;exitDy=0;" parent="wAXHmxslM8Cl57u_N9g3-1" source="LAQwIaWgyO3f-h2tZl_8-0" edge="1">
          <mxGeometry x="-1" relative="1" as="geometry">
            <mxPoint x="287" y="770" as="targetPoint" />
            <mxPoint x="330" y="620" as="sourcePoint" />
            <Array as="points">
              <mxPoint x="287" y="630" />
            </Array>
          </mxGeometry>
        </mxCell>
        <mxCell id="GLDer27ryoeM9erMsBxQ-0" value="Odgovorio na sva pitanja" style="rhombus;whiteSpace=wrap;html=1;fillColor=#ffffc0;strokeColor=#ff0000;rotation=0;" parent="wAXHmxslM8Cl57u_N9g3-1" vertex="1">
          <mxGeometry x="210" y="770" width="152.5" height="70" as="geometry" />
        </mxCell>
        <mxCell id="idrOUBfxhzBLN-v7OzdE-0" value="" style="ellipse;html=1;shape=endState;fillColor=#000000;strokeColor=#ff0000;" parent="wAXHmxslM8Cl57u_N9g3-1" vertex="1">
          <mxGeometry x="565" y="1010" width="30" height="30" as="geometry" />
        </mxCell>
        <mxCell id="idrOUBfxhzBLN-v7OzdE-9" value="no" style="edgeStyle=orthogonalEdgeStyle;html=1;align=left;verticalAlign=bottom;endArrow=open;endSize=8;strokeColor=#ff0000;exitX=0;exitY=0.5;exitDx=0;exitDy=0;entryX=0;entryY=0;entryDx=0;entryDy=0;" parent="wAXHmxslM8Cl57u_N9g3-1" source="GLDer27ryoeM9erMsBxQ-0" target="jcJg4d79mtAPE0NVaKH0-1" edge="1">
          <mxGeometry x="-1" relative="1" as="geometry">
            <mxPoint x="270" y="240" as="targetPoint" />
            <mxPoint x="140" y="790" as="sourcePoint" />
            <Array as="points">
              <mxPoint x="130" y="805" />
              <mxPoint x="130" y="240" />
            </Array>
          </mxGeometry>
        </mxCell>
        <mxCell id="idrOUBfxhzBLN-v7OzdE-10" value="yes" style="edgeStyle=orthogonalEdgeStyle;html=1;align=left;verticalAlign=top;endArrow=open;endSize=8;strokeColor=#ff0000;exitX=1;exitY=0.5;exitDx=0;exitDy=0;" parent="wAXHmxslM8Cl57u_N9g3-1" source="GLDer27ryoeM9erMsBxQ-0" edge="1">
          <mxGeometry x="-1" relative="1" as="geometry">
            <mxPoint x="540" y="920" as="targetPoint" />
            <Array as="points">
              <mxPoint x="540" y="805" />
            </Array>
            <mxPoint x="322.5" y="970" as="sourcePoint" />
          </mxGeometry>
        </mxCell>
        <mxCell id="7IzMunfAg_1IMbJEd-ez-0" value="Izracun osvojenog iznosa" style="swimlane;html=1;fontStyle=1;align=center;verticalAlign=middle;childLayout=stackLayout;horizontal=1;startSize=30;horizontalStack=0;resizeParent=0;resizeLast=1;container=0;fontColor=#000000;collapsible=0;rounded=1;arcSize=30;strokeColor=#ff0000;fillColor=#ffffc0;swimlaneFillColor=#ffffc0;dropTarget=0;" parent="wAXHmxslM8Cl57u_N9g3-1" vertex="1">
          <mxGeometry x="500" y="920" width="160" height="60" as="geometry" />
        </mxCell>
        <mxCell id="7IzMunfAg_1IMbJEd-ez-1" value="Include / Izracun osvojenog iznosa" style="text;html=1;strokeColor=none;fillColor=none;align=center;verticalAlign=middle;spacingLeft=4;spacingRight=4;whiteSpace=wrap;overflow=hidden;rotatable=0;fontColor=#000000;" parent="7IzMunfAg_1IMbJEd-ez-0" vertex="1">
          <mxGeometry y="30" width="160" height="30" as="geometry" />
        </mxCell>
        <mxCell id="7IzMunfAg_1IMbJEd-ez-2" value="" style="edgeStyle=orthogonalEdgeStyle;html=1;verticalAlign=bottom;endArrow=open;endSize=8;strokeColor=#ff0000;entryX=0.5;entryY=0;entryDx=0;entryDy=0;" parent="wAXHmxslM8Cl57u_N9g3-1" source="7IzMunfAg_1IMbJEd-ez-0" target="idrOUBfxhzBLN-v7OzdE-0" edge="1">
          <mxGeometry relative="1" as="geometry">
            <mxPoint x="550" y="1180" as="targetPoint" />
          </mxGeometry>
        </mxCell>
      </root>
    </mxGraphModel>
  </diagram>
  <diagram id="gkAMy2GrhTfOVn9qZDK9" name="Activity: Unos igrača">
    <mxGraphModel dx="1102" dy="614" grid="1" gridSize="10" guides="1" tooltips="1" connect="1" arrows="1" fold="1" page="1" pageScale="1" pageWidth="827" pageHeight="1169" math="0" shadow="0">
      <root>
        <mxCell id="FTqvIjPwVwlqrAweObdp-0" />
        <mxCell id="FTqvIjPwVwlqrAweObdp-1" parent="FTqvIjPwVwlqrAweObdp-0" />
        <mxCell id="N3-3HpU3M7E1vBwil4A--0" value="" style="ellipse;html=1;shape=endState;fillColor=#000000;strokeColor=#ff0000;" parent="FTqvIjPwVwlqrAweObdp-1" vertex="1">
          <mxGeometry x="395" y="630" width="30" height="30" as="geometry" />
        </mxCell>
        <mxCell id="N3-3HpU3M7E1vBwil4A--1" value="" style="ellipse;html=1;shape=startState;fillColor=#000000;strokeColor=#ff0000;" parent="FTqvIjPwVwlqrAweObdp-1" vertex="1">
          <mxGeometry x="400" y="10" width="30" height="30" as="geometry" />
        </mxCell>
        <mxCell id="N3-3HpU3M7E1vBwil4A--2" value="" style="edgeStyle=orthogonalEdgeStyle;html=1;verticalAlign=bottom;endArrow=open;endSize=8;strokeColor=#ff0000;" parent="FTqvIjPwVwlqrAweObdp-1" source="N3-3HpU3M7E1vBwil4A--1" edge="1">
          <mxGeometry relative="1" as="geometry">
            <mxPoint x="415" y="100" as="targetPoint" />
          </mxGeometry>
        </mxCell>
        <mxCell id="N3-3HpU3M7E1vBwil4A--3" value="Igra prikaže unos imena" style="rounded=1;whiteSpace=wrap;html=1;arcSize=40;fontColor=#000000;fillColor=#ffffc0;strokeColor=#ff0000;" parent="FTqvIjPwVwlqrAweObdp-1" vertex="1">
          <mxGeometry x="355" y="100" width="120" height="40" as="geometry" />
        </mxCell>
        <mxCell id="N3-3HpU3M7E1vBwil4A--4" value="" style="edgeStyle=orthogonalEdgeStyle;html=1;verticalAlign=bottom;endArrow=open;endSize=8;strokeColor=#ff0000;" parent="FTqvIjPwVwlqrAweObdp-1" source="N3-3HpU3M7E1vBwil4A--3" edge="1">
          <mxGeometry relative="1" as="geometry">
            <mxPoint x="415" y="200" as="targetPoint" />
          </mxGeometry>
        </mxCell>
        <mxCell id="N3-3HpU3M7E1vBwil4A--5" value="Igrač unese ime" style="rounded=1;whiteSpace=wrap;html=1;arcSize=40;fontColor=#000000;fillColor=#ffffc0;strokeColor=#ff0000;" parent="FTqvIjPwVwlqrAweObdp-1" vertex="1">
          <mxGeometry x="354" y="200" width="120" height="40" as="geometry" />
        </mxCell>
        <mxCell id="N3-3HpU3M7E1vBwil4A--6" value="" style="edgeStyle=orthogonalEdgeStyle;html=1;verticalAlign=bottom;endArrow=open;endSize=8;strokeColor=#ff0000;" parent="FTqvIjPwVwlqrAweObdp-1" source="N3-3HpU3M7E1vBwil4A--5" edge="1">
          <mxGeometry relative="1" as="geometry">
            <mxPoint x="410" y="280" as="targetPoint" />
            <Array as="points">
              <mxPoint x="410" y="270" />
              <mxPoint x="410" y="270" />
            </Array>
          </mxGeometry>
        </mxCell>
        <mxCell id="N3-3HpU3M7E1vBwil4A--7" value="Unos točan" style="rhombus;whiteSpace=wrap;html=1;fillColor=#ffffc0;strokeColor=#ff0000;" parent="FTqvIjPwVwlqrAweObdp-1" vertex="1">
          <mxGeometry x="340" y="360" width="140" height="60" as="geometry" />
        </mxCell>
        <mxCell id="N3-3HpU3M7E1vBwil4A--8" value="no" style="edgeStyle=orthogonalEdgeStyle;html=1;align=left;verticalAlign=bottom;endArrow=open;endSize=8;strokeColor=#ff0000;exitX=1;exitY=0.5;exitDx=0;exitDy=0;entryX=0.958;entryY=0.5;entryDx=0;entryDy=0;entryPerimeter=0;" parent="FTqvIjPwVwlqrAweObdp-1" source="N3-3HpU3M7E1vBwil4A--7" target="N3-3HpU3M7E1vBwil4A--3" edge="1">
          <mxGeometry x="-1" relative="1" as="geometry">
            <mxPoint x="480" y="120" as="targetPoint" />
            <Array as="points">
              <mxPoint x="530" y="390" />
              <mxPoint x="530" y="120" />
            </Array>
          </mxGeometry>
        </mxCell>
        <mxCell id="N3-3HpU3M7E1vBwil4A--9" value="yes" style="edgeStyle=orthogonalEdgeStyle;html=1;align=left;verticalAlign=top;endArrow=open;endSize=8;strokeColor=#ff0000;entryX=0.5;entryY=0;entryDx=0;entryDy=0;" parent="FTqvIjPwVwlqrAweObdp-1" source="N3-3HpU3M7E1vBwil4A--7" target="N3-3HpU3M7E1vBwil4A--10" edge="1">
          <mxGeometry x="-1" relative="1" as="geometry">
            <mxPoint x="410" y="430" as="targetPoint" />
            <Array as="points">
              <mxPoint x="414" y="390" />
              <mxPoint x="410" y="390" />
              <mxPoint x="410" y="440" />
            </Array>
          </mxGeometry>
        </mxCell>
        <mxCell id="N3-3HpU3M7E1vBwil4A--10" value="Igra postavi korisnika za igrača" style="rounded=1;whiteSpace=wrap;html=1;arcSize=40;fontColor=#000000;fillColor=#ffffc0;strokeColor=#ff0000;" parent="FTqvIjPwVwlqrAweObdp-1" vertex="1">
          <mxGeometry x="350" y="450" width="120" height="40" as="geometry" />
        </mxCell>
        <mxCell id="N3-3HpU3M7E1vBwil4A--11" value="" style="edgeStyle=orthogonalEdgeStyle;html=1;verticalAlign=bottom;endArrow=open;endSize=8;strokeColor=#ff0000;" parent="FTqvIjPwVwlqrAweObdp-1" source="N3-3HpU3M7E1vBwil4A--10" edge="1">
          <mxGeometry relative="1" as="geometry">
            <mxPoint x="410" y="530" as="targetPoint" />
          </mxGeometry>
        </mxCell>
        <mxCell id="N3-3HpU3M7E1vBwil4A--14" value="Igra postavi broj pitanja na 0" style="rounded=1;whiteSpace=wrap;html=1;arcSize=40;fontColor=#000000;fillColor=#ffffc0;strokeColor=#ff0000;" parent="FTqvIjPwVwlqrAweObdp-1" vertex="1">
          <mxGeometry x="350" y="530" width="120" height="40" as="geometry" />
        </mxCell>
        <mxCell id="N3-3HpU3M7E1vBwil4A--15" value="" style="edgeStyle=orthogonalEdgeStyle;html=1;verticalAlign=bottom;endArrow=open;endSize=8;strokeColor=#ff0000;" parent="FTqvIjPwVwlqrAweObdp-1" source="N3-3HpU3M7E1vBwil4A--14" edge="1">
          <mxGeometry relative="1" as="geometry">
            <mxPoint x="410" y="630" as="targetPoint" />
          </mxGeometry>
        </mxCell>
        <mxCell id="oOKffaDtK3XuVH-vdG95-1" value="Igra provjeri valjanost imena" style="rounded=1;whiteSpace=wrap;html=1;arcSize=40;fontColor=#000000;fillColor=#ffffc0;strokeColor=#ff0000;" parent="FTqvIjPwVwlqrAweObdp-1" vertex="1">
          <mxGeometry x="350" y="280" width="120" height="40" as="geometry" />
        </mxCell>
        <mxCell id="oOKffaDtK3XuVH-vdG95-2" value="" style="edgeStyle=orthogonalEdgeStyle;html=1;verticalAlign=bottom;endArrow=open;endSize=8;strokeColor=#ff0000;" parent="FTqvIjPwVwlqrAweObdp-1" target="N3-3HpU3M7E1vBwil4A--7" edge="1">
          <mxGeometry relative="1" as="geometry">
            <mxPoint x="280" y="390" as="targetPoint" />
            <mxPoint x="410" y="319" as="sourcePoint" />
          </mxGeometry>
        </mxCell>
      </root>
    </mxGraphModel>
  </diagram>
  <diagram id="E5MHAFEgCnF0UYrn_e20" name="Activity: Postavljanje pitanja">
    <mxGraphModel dx="1102" dy="614" grid="1" gridSize="10" guides="1" tooltips="1" connect="1" arrows="1" fold="1" page="1" pageScale="1" pageWidth="827" pageHeight="1169" math="0" shadow="0">
      <root>
        <mxCell id="N31BzO3jxm8Ufm5j2zLH-0" />
        <mxCell id="N31BzO3jxm8Ufm5j2zLH-1" parent="N31BzO3jxm8Ufm5j2zLH-0" />
        <mxCell id="rq9IFuL7IGdMuAUsht8p-0" value="" style="ellipse;html=1;shape=startState;fillColor=#000000;strokeColor=#ff0000;" parent="N31BzO3jxm8Ufm5j2zLH-1" vertex="1">
          <mxGeometry x="380" y="30" width="30" height="30" as="geometry" />
        </mxCell>
        <mxCell id="rq9IFuL7IGdMuAUsht8p-1" value="" style="edgeStyle=orthogonalEdgeStyle;html=1;verticalAlign=bottom;endArrow=open;endSize=8;strokeColor=#ff0000;" parent="N31BzO3jxm8Ufm5j2zLH-1" source="rq9IFuL7IGdMuAUsht8p-0" edge="1">
          <mxGeometry relative="1" as="geometry">
            <mxPoint x="395" y="120" as="targetPoint" />
          </mxGeometry>
        </mxCell>
        <mxCell id="rq9IFuL7IGdMuAUsht8p-2" value="" style="ellipse;html=1;shape=endState;fillColor=#000000;strokeColor=#ff0000;" parent="N31BzO3jxm8Ufm5j2zLH-1" vertex="1">
          <mxGeometry x="380" y="490" width="30" height="30" as="geometry" />
        </mxCell>
        <mxCell id="rq9IFuL7IGdMuAUsht8p-3" value="Odabir kategorije(s obzirom na PRAG) temeljem trenutnog broja pitanja(prva, druga ili treća)" style="rounded=1;whiteSpace=wrap;html=1;arcSize=40;fontColor=#000000;fillColor=#ffffc0;strokeColor=#ff0000;" parent="N31BzO3jxm8Ufm5j2zLH-1" vertex="1">
          <mxGeometry x="247.5" y="120" width="295" height="110" as="geometry" />
        </mxCell>
        <mxCell id="rq9IFuL7IGdMuAUsht8p-4" value="" style="edgeStyle=orthogonalEdgeStyle;html=1;verticalAlign=bottom;endArrow=open;endSize=8;strokeColor=#ff0000;" parent="N31BzO3jxm8Ufm5j2zLH-1" source="rq9IFuL7IGdMuAUsht8p-3" edge="1">
          <mxGeometry relative="1" as="geometry">
            <mxPoint x="395" y="280" as="targetPoint" />
            <Array as="points">
              <mxPoint x="395" y="220" />
              <mxPoint x="395" y="220" />
            </Array>
          </mxGeometry>
        </mxCell>
        <mxCell id="rq9IFuL7IGdMuAUsht8p-5" value="Slučajan odabir pitanja unutar kategorije" style="rounded=1;whiteSpace=wrap;html=1;arcSize=40;fontColor=#000000;fillColor=#ffffc0;strokeColor=#ff0000;" parent="N31BzO3jxm8Ufm5j2zLH-1" vertex="1">
          <mxGeometry x="335" y="280" width="135" height="60" as="geometry" />
        </mxCell>
        <mxCell id="rq9IFuL7IGdMuAUsht8p-6" value="" style="edgeStyle=orthogonalEdgeStyle;html=1;verticalAlign=bottom;endArrow=open;endSize=8;strokeColor=#ff0000;" parent="N31BzO3jxm8Ufm5j2zLH-1" source="rq9IFuL7IGdMuAUsht8p-5" edge="1">
          <mxGeometry relative="1" as="geometry">
            <mxPoint x="395" y="380" as="targetPoint" />
            <Array as="points">
              <mxPoint x="395" y="360" />
              <mxPoint x="395" y="360" />
            </Array>
          </mxGeometry>
        </mxCell>
        <mxCell id="rq9IFuL7IGdMuAUsht8p-7" value="Prikaz pitanja korisniku" style="rounded=1;whiteSpace=wrap;html=1;arcSize=40;fontColor=#000000;fillColor=#ffffc0;strokeColor=#ff0000;" parent="N31BzO3jxm8Ufm5j2zLH-1" vertex="1">
          <mxGeometry x="335" y="380" width="135" height="60" as="geometry" />
        </mxCell>
        <mxCell id="rq9IFuL7IGdMuAUsht8p-8" value="" style="edgeStyle=orthogonalEdgeStyle;html=1;verticalAlign=bottom;endArrow=open;endSize=8;strokeColor=#ff0000;" parent="N31BzO3jxm8Ufm5j2zLH-1" source="rq9IFuL7IGdMuAUsht8p-7" edge="1">
          <mxGeometry relative="1" as="geometry">
            <mxPoint x="395" y="490" as="targetPoint" />
            <Array as="points">
              <mxPoint x="395" y="480" />
            </Array>
          </mxGeometry>
        </mxCell>
      </root>
    </mxGraphModel>
  </diagram>
  <diagram id="nFM7k_mVUC81MG6tvNir" name="Activity: Odgovaranje">
    <mxGraphModel dx="1102" dy="614" grid="1" gridSize="10" guides="1" tooltips="1" connect="1" arrows="1" fold="1" page="1" pageScale="1" pageWidth="827" pageHeight="1169" math="0" shadow="0">
      <root>
        <mxCell id="elTe07wB95oEHEL393jH-0" />
        <mxCell id="elTe07wB95oEHEL393jH-1" parent="elTe07wB95oEHEL393jH-0" />
        <mxCell id="xTyxvCe-SFSw2LNMRM63-0" value="" style="ellipse;html=1;shape=startState;fillColor=#000000;strokeColor=#ff0000;" parent="elTe07wB95oEHEL393jH-1" vertex="1">
          <mxGeometry x="400" y="30" width="30" height="30" as="geometry" />
        </mxCell>
        <mxCell id="xTyxvCe-SFSw2LNMRM63-1" value="" style="edgeStyle=orthogonalEdgeStyle;html=1;verticalAlign=bottom;endArrow=open;endSize=8;strokeColor=#ff0000;entryX=0.5;entryY=0;entryDx=0;entryDy=0;" parent="elTe07wB95oEHEL393jH-1" target="GnyDiIg59cdhOrmOyjfw-15" edge="1">
          <mxGeometry relative="1" as="geometry">
            <mxPoint x="415" y="140" as="targetPoint" />
            <Array as="points">
              <mxPoint x="414" y="60" />
              <mxPoint x="415" y="60" />
            </Array>
            <mxPoint x="414" y="90" as="sourcePoint" />
          </mxGeometry>
        </mxCell>
        <mxCell id="GnyDiIg59cdhOrmOyjfw-1" value="Korisnik odabire džokera" style="rhombus;whiteSpace=wrap;html=1;fillColor=#ffffc0;strokeColor=#ff0000;" parent="elTe07wB95oEHEL393jH-1" vertex="1">
          <mxGeometry x="330" y="350" width="170" height="80" as="geometry" />
        </mxCell>
        <mxCell id="GnyDiIg59cdhOrmOyjfw-2" value="no" style="edgeStyle=orthogonalEdgeStyle;html=1;align=left;verticalAlign=bottom;endArrow=open;endSize=8;strokeColor=#ff0000;entryX=1;entryY=0.5;entryDx=0;entryDy=0;" parent="elTe07wB95oEHEL393jH-1" source="GnyDiIg59cdhOrmOyjfw-1" edge="1" target="GnyDiIg59cdhOrmOyjfw-48">
          <mxGeometry x="-1" relative="1" as="geometry">
            <mxPoint x="380" y="698" as="targetPoint" />
            <Array as="points">
              <mxPoint x="590" y="390" />
              <mxPoint x="590" y="640" />
            </Array>
          </mxGeometry>
        </mxCell>
        <mxCell id="GnyDiIg59cdhOrmOyjfw-11" value="yes" style="edgeStyle=orthogonalEdgeStyle;html=1;align=left;verticalAlign=top;endArrow=open;endSize=8;strokeColor=#ff0000;exitX=0;exitY=0.5;exitDx=0;exitDy=0;" parent="elTe07wB95oEHEL393jH-1" source="GnyDiIg59cdhOrmOyjfw-1" edge="1">
          <mxGeometry x="-1" relative="1" as="geometry">
            <mxPoint x="275" y="480" as="targetPoint" />
            <mxPoint x="274.5" y="610" as="sourcePoint" />
            <Array as="points">
              <mxPoint x="275" y="390" />
            </Array>
          </mxGeometry>
        </mxCell>
        <mxCell id="GnyDiIg59cdhOrmOyjfw-15" value="Upit korisniku želi li odabrati džokera" style="rounded=1;whiteSpace=wrap;html=1;arcSize=40;fontColor=#000000;fillColor=#ffffc0;strokeColor=#ff0000;" parent="elTe07wB95oEHEL393jH-1" vertex="1">
          <mxGeometry x="354" y="150" width="120" height="40" as="geometry" />
        </mxCell>
        <mxCell id="GnyDiIg59cdhOrmOyjfw-16" value="" style="edgeStyle=orthogonalEdgeStyle;html=1;verticalAlign=bottom;endArrow=open;endSize=8;strokeColor=#ff0000;" parent="elTe07wB95oEHEL393jH-1" source="GnyDiIg59cdhOrmOyjfw-15" edge="1">
          <mxGeometry relative="1" as="geometry">
            <mxPoint x="414" y="250" as="targetPoint" />
          </mxGeometry>
        </mxCell>
        <mxCell id="GnyDiIg59cdhOrmOyjfw-17" value="Korisnik unosi odgovor" style="rounded=1;whiteSpace=wrap;html=1;arcSize=40;fontColor=#000000;fillColor=#ffffc0;strokeColor=#ff0000;" parent="elTe07wB95oEHEL393jH-1" vertex="1">
          <mxGeometry x="354" y="250" width="120" height="40" as="geometry" />
        </mxCell>
        <mxCell id="GnyDiIg59cdhOrmOyjfw-18" value="" style="edgeStyle=orthogonalEdgeStyle;html=1;verticalAlign=bottom;endArrow=open;endSize=8;strokeColor=#ff0000;" parent="elTe07wB95oEHEL393jH-1" source="GnyDiIg59cdhOrmOyjfw-17" edge="1">
          <mxGeometry relative="1" as="geometry">
            <mxPoint x="414" y="350" as="targetPoint" />
          </mxGeometry>
        </mxCell>
        <mxCell id="GnyDiIg59cdhOrmOyjfw-48" value="Korisnik odgovara" style="rounded=1;whiteSpace=wrap;html=1;arcSize=40;fontColor=#000000;fillColor=#ffffc0;strokeColor=#ff0000;" parent="elTe07wB95oEHEL393jH-1" vertex="1">
          <mxGeometry x="174.5" y="600" width="200" height="80" as="geometry" />
        </mxCell>
        <mxCell id="GnyDiIg59cdhOrmOyjfw-50" value="" style="ellipse;html=1;shape=endState;fillColor=#000000;strokeColor=#ff0000;" parent="elTe07wB95oEHEL393jH-1" vertex="1">
          <mxGeometry x="273" y="1300" width="30" height="30" as="geometry" />
        </mxCell>
        <mxCell id="OKu04xlFisM-lb1GZgX1-0" value="Korisnik odgovara" style="rhombus;whiteSpace=wrap;html=1;fillColor=#ffffc0;strokeColor=#ff0000;" parent="elTe07wB95oEHEL393jH-1" vertex="1">
          <mxGeometry x="200" y="720" width="149" height="90" as="geometry" />
        </mxCell>
        <mxCell id="OKu04xlFisM-lb1GZgX1-1" value="no" style="edgeStyle=orthogonalEdgeStyle;html=1;align=left;verticalAlign=bottom;endArrow=open;endSize=8;strokeColor=#ff0000;" parent="elTe07wB95oEHEL393jH-1" source="OKu04xlFisM-lb1GZgX1-0" edge="1">
          <mxGeometry x="-1" relative="1" as="geometry">
            <mxPoint x="499" y="1100" as="targetPoint" />
          </mxGeometry>
        </mxCell>
        <mxCell id="OKu04xlFisM-lb1GZgX1-2" value="yes" style="edgeStyle=orthogonalEdgeStyle;html=1;align=left;verticalAlign=top;endArrow=open;endSize=8;strokeColor=#ff0000;" parent="elTe07wB95oEHEL393jH-1" source="OKu04xlFisM-lb1GZgX1-0" edge="1">
          <mxGeometry x="-1" relative="1" as="geometry">
            <mxPoint x="274" y="890" as="targetPoint" />
          </mxGeometry>
        </mxCell>
        <mxCell id="OKu04xlFisM-lb1GZgX1-4" value="Korisnik odustao" style="rounded=1;whiteSpace=wrap;html=1;arcSize=40;fontColor=#000000;fillColor=#ffffc0;strokeColor=#ff0000;" parent="elTe07wB95oEHEL393jH-1" vertex="1">
          <mxGeometry x="439" y="1100" width="120" height="40" as="geometry" />
        </mxCell>
        <mxCell id="OKu04xlFisM-lb1GZgX1-5" value="" style="edgeStyle=orthogonalEdgeStyle;html=1;verticalAlign=bottom;endArrow=open;endSize=8;strokeColor=#ff0000;entryX=1;entryY=0.5;entryDx=0;entryDy=0;" parent="elTe07wB95oEHEL393jH-1" source="OKu04xlFisM-lb1GZgX1-4" edge="1">
          <mxGeometry relative="1" as="geometry">
            <mxPoint x="303" y="1315" as="targetPoint" />
            <Array as="points">
              <mxPoint x="469" y="1315" />
            </Array>
          </mxGeometry>
        </mxCell>
        <mxCell id="OKu04xlFisM-lb1GZgX1-6" value="Odgovor točan" style="rhombus;whiteSpace=wrap;html=1;fillColor=#ffffc0;strokeColor=#ff0000;" parent="elTe07wB95oEHEL393jH-1" vertex="1">
          <mxGeometry x="189" y="890" width="170" height="80" as="geometry" />
        </mxCell>
        <mxCell id="OKu04xlFisM-lb1GZgX1-7" value="no" style="edgeStyle=orthogonalEdgeStyle;html=1;align=left;verticalAlign=bottom;endArrow=open;endSize=8;strokeColor=#ff0000;" parent="elTe07wB95oEHEL393jH-1" source="OKu04xlFisM-lb1GZgX1-6" edge="1">
          <mxGeometry x="-1" relative="1" as="geometry">
            <mxPoint x="369" y="1110" as="targetPoint" />
          </mxGeometry>
        </mxCell>
        <mxCell id="OKu04xlFisM-lb1GZgX1-8" value="yes" style="edgeStyle=orthogonalEdgeStyle;html=1;align=left;verticalAlign=top;endArrow=open;endSize=8;strokeColor=#ff0000;" parent="elTe07wB95oEHEL393jH-1" source="OKu04xlFisM-lb1GZgX1-6" edge="1">
          <mxGeometry x="-1" relative="1" as="geometry">
            <mxPoint x="89" y="1050" as="targetPoint" />
            <Array as="points">
              <mxPoint x="274" y="980" />
              <mxPoint x="89" y="980" />
            </Array>
          </mxGeometry>
        </mxCell>
        <mxCell id="OKu04xlFisM-lb1GZgX1-12" value="Broj pitanja +=1" style="rounded=1;whiteSpace=wrap;html=1;arcSize=40;fontColor=#000000;fillColor=#ffffc0;strokeColor=#ff0000;" parent="elTe07wB95oEHEL393jH-1" vertex="1">
          <mxGeometry x="19" y="1050" width="140" height="70" as="geometry" />
        </mxCell>
        <mxCell id="OKu04xlFisM-lb1GZgX1-13" value="" style="edgeStyle=orthogonalEdgeStyle;html=1;verticalAlign=bottom;endArrow=open;endSize=8;strokeColor=#ff0000;entryX=0;entryY=0;entryDx=0;entryDy=0;" parent="elTe07wB95oEHEL393jH-1" source="OKu04xlFisM-lb1GZgX1-12" edge="1">
          <mxGeometry relative="1" as="geometry">
            <mxPoint x="277.3933982822018" y="1304.3933982822018" as="targetPoint" />
          </mxGeometry>
        </mxCell>
        <mxCell id="OKu04xlFisM-lb1GZgX1-14" value="Korisnik krivo odgovorio" style="rounded=1;whiteSpace=wrap;html=1;arcSize=40;fontColor=#000000;fillColor=#ffffc0;strokeColor=#ff0000;" parent="elTe07wB95oEHEL393jH-1" vertex="1">
          <mxGeometry x="303" y="1110" width="120" height="40" as="geometry" />
        </mxCell>
        <mxCell id="OKu04xlFisM-lb1GZgX1-15" value="" style="edgeStyle=orthogonalEdgeStyle;html=1;verticalAlign=bottom;endArrow=open;endSize=8;strokeColor=#ff0000;entryX=0.5;entryY=0;entryDx=0;entryDy=0;" parent="elTe07wB95oEHEL393jH-1" source="OKu04xlFisM-lb1GZgX1-14" edge="1">
          <mxGeometry relative="1" as="geometry">
            <mxPoint x="288" y="1300" as="targetPoint" />
          </mxGeometry>
        </mxCell>
        <mxCell id="5daichQJduIjc8knGKvg-0" value="Džoker" style="swimlane;html=1;fontStyle=1;align=center;verticalAlign=middle;childLayout=stackLayout;horizontal=1;startSize=30;horizontalStack=0;resizeParent=0;resizeLast=1;container=0;fontColor=#000000;collapsible=0;rounded=1;arcSize=30;strokeColor=#ff0000;fillColor=#ffffc0;swimlaneFillColor=#ffffc0;dropTarget=0;" vertex="1" parent="elTe07wB95oEHEL393jH-1">
          <mxGeometry x="195" y="480" width="160" height="60" as="geometry" />
        </mxCell>
        <mxCell id="5daichQJduIjc8knGKvg-1" value="Invite / Džoker&lt;br&gt;" style="text;html=1;strokeColor=none;fillColor=none;align=center;verticalAlign=middle;spacingLeft=4;spacingRight=4;whiteSpace=wrap;overflow=hidden;rotatable=0;fontColor=#000000;" vertex="1" parent="5daichQJduIjc8knGKvg-0">
          <mxGeometry y="30" width="160" height="30" as="geometry" />
        </mxCell>
        <mxCell id="5daichQJduIjc8knGKvg-2" value="" style="edgeStyle=orthogonalEdgeStyle;html=1;verticalAlign=bottom;endArrow=open;endSize=8;strokeColor=#ff0000;" edge="1" source="5daichQJduIjc8knGKvg-0" parent="elTe07wB95oEHEL393jH-1">
          <mxGeometry relative="1" as="geometry">
            <mxPoint x="275" y="600" as="targetPoint" />
          </mxGeometry>
        </mxCell>
        <mxCell id="5daichQJduIjc8knGKvg-9" value="" style="edgeStyle=orthogonalEdgeStyle;html=1;verticalAlign=bottom;endArrow=open;endSize=8;strokeColor=#ff0000;exitX=0.5;exitY=1;exitDx=0;exitDy=0;entryX=0.5;entryY=0;entryDx=0;entryDy=0;" edge="1" parent="elTe07wB95oEHEL393jH-1" source="GnyDiIg59cdhOrmOyjfw-48" target="OKu04xlFisM-lb1GZgX1-0">
          <mxGeometry relative="1" as="geometry">
            <mxPoint x="420" y="710" as="targetPoint" />
            <mxPoint x="285" y="550" as="sourcePoint" />
          </mxGeometry>
        </mxCell>
        <mxCell id="5daichQJduIjc8knGKvg-10" value="Da/Ne" style="text;html=1;align=center;verticalAlign=middle;resizable=0;points=[];autosize=1;" vertex="1" parent="elTe07wB95oEHEL393jH-1">
          <mxGeometry x="414" y="310" width="50" height="20" as="geometry" />
        </mxCell>
      </root>
    </mxGraphModel>
  </diagram>
  <diagram id="ZeAhrpWVxZt84dWmfS-i" name="Activity: Izracun osvojenog iznosa">
    <mxGraphModel dx="1102" dy="614" grid="1" gridSize="10" guides="1" tooltips="1" connect="1" arrows="1" fold="1" page="1" pageScale="1" pageWidth="827" pageHeight="1169" math="0" shadow="0">
      <root>
        <mxCell id="eCB3eIl9l_GfIS7ZdLor-0" />
        <mxCell id="eCB3eIl9l_GfIS7ZdLor-1" parent="eCB3eIl9l_GfIS7ZdLor-0" />
        <mxCell id="eCB3eIl9l_GfIS7ZdLor-2" value="" style="ellipse;html=1;shape=startState;fillColor=#000000;strokeColor=#ff0000;" parent="eCB3eIl9l_GfIS7ZdLor-1" vertex="1">
          <mxGeometry x="350" y="20" width="30" height="30" as="geometry" />
        </mxCell>
        <mxCell id="eCB3eIl9l_GfIS7ZdLor-3" value="" style="edgeStyle=orthogonalEdgeStyle;html=1;verticalAlign=bottom;endArrow=open;endSize=8;strokeColor=#ff0000;" parent="eCB3eIl9l_GfIS7ZdLor-1" source="eCB3eIl9l_GfIS7ZdLor-2" edge="1">
          <mxGeometry relative="1" as="geometry">
            <mxPoint x="365" y="110" as="targetPoint" />
          </mxGeometry>
        </mxCell>
        <mxCell id="eCB3eIl9l_GfIS7ZdLor-5" value="Pitanja odgovoreno 15" style="rhombus;whiteSpace=wrap;html=1;fillColor=#ffffc0;strokeColor=#ff0000;" parent="eCB3eIl9l_GfIS7ZdLor-1" vertex="1">
          <mxGeometry x="287.5" y="260" width="160" height="130" as="geometry" />
        </mxCell>
        <mxCell id="eCB3eIl9l_GfIS7ZdLor-6" value="no" style="edgeStyle=orthogonalEdgeStyle;html=1;align=left;verticalAlign=bottom;endArrow=open;endSize=8;strokeColor=#ff0000;" parent="eCB3eIl9l_GfIS7ZdLor-1" source="eCB3eIl9l_GfIS7ZdLor-5" edge="1">
          <mxGeometry x="-1" relative="1" as="geometry">
            <mxPoint x="510" y="430" as="targetPoint" />
          </mxGeometry>
        </mxCell>
        <mxCell id="eCB3eIl9l_GfIS7ZdLor-7" value="yes" style="edgeStyle=orthogonalEdgeStyle;html=1;align=left;verticalAlign=top;endArrow=open;endSize=8;strokeColor=#ff0000;" parent="eCB3eIl9l_GfIS7ZdLor-1" source="eCB3eIl9l_GfIS7ZdLor-5" target="eCB3eIl9l_GfIS7ZdLor-19" edge="1">
          <mxGeometry x="-1" relative="1" as="geometry">
            <mxPoint x="367.5" y="470" as="targetPoint" />
          </mxGeometry>
        </mxCell>
        <mxCell id="eCB3eIl9l_GfIS7ZdLor-8" value="Usporedba broja odgovorenih pitanja s pragom" style="rounded=1;whiteSpace=wrap;html=1;arcSize=40;fontColor=#000000;fillColor=#ffffc0;strokeColor=#ff0000;" parent="eCB3eIl9l_GfIS7ZdLor-1" vertex="1">
          <mxGeometry x="287.5" y="110" width="155" height="80" as="geometry" />
        </mxCell>
        <mxCell id="eCB3eIl9l_GfIS7ZdLor-9" value="" style="edgeStyle=orthogonalEdgeStyle;html=1;verticalAlign=bottom;endArrow=open;endSize=8;strokeColor=#ff0000;" parent="eCB3eIl9l_GfIS7ZdLor-1" source="eCB3eIl9l_GfIS7ZdLor-8" edge="1">
          <mxGeometry relative="1" as="geometry">
            <mxPoint x="365" y="260" as="targetPoint" />
          </mxGeometry>
        </mxCell>
        <mxCell id="eCB3eIl9l_GfIS7ZdLor-19" value="Osvojen milijun" style="rounded=1;whiteSpace=wrap;html=1;arcSize=40;fontColor=#000000;fillColor=#ffffc0;strokeColor=#ff0000;" parent="eCB3eIl9l_GfIS7ZdLor-1" vertex="1">
          <mxGeometry x="90" y="440" width="120" height="40" as="geometry" />
        </mxCell>
        <mxCell id="u2S66NnbL3Ko6zVvJJ0X-2" value="Korisnik odustao" style="rhombus;whiteSpace=wrap;html=1;fillColor=#ffffc0;strokeColor=#ff0000;" parent="eCB3eIl9l_GfIS7ZdLor-1" vertex="1">
          <mxGeometry x="447.5" y="430" width="130" height="90" as="geometry" />
        </mxCell>
        <mxCell id="u2S66NnbL3Ko6zVvJJ0X-3" value="no" style="edgeStyle=orthogonalEdgeStyle;html=1;align=left;verticalAlign=bottom;endArrow=open;endSize=8;strokeColor=#ff0000;" parent="eCB3eIl9l_GfIS7ZdLor-1" source="u2S66NnbL3Ko6zVvJJ0X-2" edge="1">
          <mxGeometry x="-1" relative="1" as="geometry">
            <mxPoint x="610" y="660" as="targetPoint" />
          </mxGeometry>
        </mxCell>
        <mxCell id="u2S66NnbL3Ko6zVvJJ0X-4" value="yes" style="edgeStyle=orthogonalEdgeStyle;html=1;align=left;verticalAlign=top;endArrow=open;endSize=8;strokeColor=#ff0000;entryX=0.454;entryY=-0.025;entryDx=0;entryDy=0;entryPerimeter=0;" parent="eCB3eIl9l_GfIS7ZdLor-1" source="u2S66NnbL3Ko6zVvJJ0X-2" target="u2S66NnbL3Ko6zVvJJ0X-5" edge="1">
          <mxGeometry x="-1" relative="1" as="geometry">
            <mxPoint x="510" y="610" as="targetPoint" />
            <Array as="points">
              <mxPoint x="513" y="560" />
              <mxPoint x="512" y="610" />
            </Array>
          </mxGeometry>
        </mxCell>
        <mxCell id="u2S66NnbL3Ko6zVvJJ0X-5" value="Osvojen iznos [prag]" style="rounded=1;whiteSpace=wrap;html=1;arcSize=40;fontColor=#000000;fillColor=#ffffc0;strokeColor=#ff0000;" parent="eCB3eIl9l_GfIS7ZdLor-1" vertex="1">
          <mxGeometry x="457.5" y="620" width="120" height="40" as="geometry" />
        </mxCell>
        <mxCell id="u2S66NnbL3Ko6zVvJJ0X-6" value="" style="edgeStyle=orthogonalEdgeStyle;html=1;verticalAlign=bottom;endArrow=open;endSize=8;strokeColor=#ff0000;entryX=1;entryY=0;entryDx=0;entryDy=0;" parent="eCB3eIl9l_GfIS7ZdLor-1" source="u2S66NnbL3Ko6zVvJJ0X-5" target="CAgU0GHQL7iny3bI01cw-16" edge="1">
          <mxGeometry relative="1" as="geometry">
            <mxPoint x="160" y="860" as="targetPoint" />
          </mxGeometry>
        </mxCell>
        <mxCell id="CAgU0GHQL7iny3bI01cw-0" value="Pitanja odgovoreno 10-14" style="rhombus;whiteSpace=wrap;html=1;fillColor=#ffffc0;strokeColor=#ff0000;" parent="eCB3eIl9l_GfIS7ZdLor-1" vertex="1">
          <mxGeometry x="530" y="660" width="160" height="130" as="geometry" />
        </mxCell>
        <mxCell id="CAgU0GHQL7iny3bI01cw-1" value="no" style="edgeStyle=orthogonalEdgeStyle;html=1;align=left;verticalAlign=bottom;endArrow=open;endSize=8;strokeColor=#ff0000;" parent="eCB3eIl9l_GfIS7ZdLor-1" source="CAgU0GHQL7iny3bI01cw-0" edge="1">
          <mxGeometry x="-1" relative="1" as="geometry">
            <mxPoint x="736" y="815" as="targetPoint" />
          </mxGeometry>
        </mxCell>
        <mxCell id="CAgU0GHQL7iny3bI01cw-2" value="yes" style="edgeStyle=orthogonalEdgeStyle;html=1;align=left;verticalAlign=top;endArrow=open;endSize=8;strokeColor=#ff0000;entryX=0.378;entryY=0.04;entryDx=0;entryDy=0;entryPerimeter=0;exitX=0.5;exitY=1;exitDx=0;exitDy=0;" parent="eCB3eIl9l_GfIS7ZdLor-1" source="CAgU0GHQL7iny3bI01cw-0" edge="1" target="CAgU0GHQL7iny3bI01cw-9">
          <mxGeometry x="-1" y="-14" relative="1" as="geometry">
            <mxPoint x="330" y="885" as="targetPoint" />
            <Array as="points">
              <mxPoint x="610" y="840" />
              <mxPoint x="333" y="840" />
            </Array>
            <mxPoint x="610" y="800" as="sourcePoint" />
            <mxPoint x="10" y="4" as="offset" />
          </mxGeometry>
        </mxCell>
        <mxCell id="CAgU0GHQL7iny3bI01cw-3" value="Pitanja odgovoreno 5-9" style="rhombus;whiteSpace=wrap;html=1;fillColor=#ffffc0;strokeColor=#ff0000;" parent="eCB3eIl9l_GfIS7ZdLor-1" vertex="1">
          <mxGeometry x="656" y="815" width="160" height="130" as="geometry" />
        </mxCell>
        <mxCell id="CAgU0GHQL7iny3bI01cw-4" value="no" style="edgeStyle=orthogonalEdgeStyle;html=1;align=left;verticalAlign=bottom;endArrow=open;endSize=8;strokeColor=#ff0000;" parent="eCB3eIl9l_GfIS7ZdLor-1" source="CAgU0GHQL7iny3bI01cw-3" edge="1">
          <mxGeometry x="-1" relative="1" as="geometry">
            <mxPoint x="736" y="1035" as="targetPoint" />
          </mxGeometry>
        </mxCell>
        <mxCell id="CAgU0GHQL7iny3bI01cw-5" value="yes" style="edgeStyle=orthogonalEdgeStyle;html=1;align=left;verticalAlign=top;endArrow=open;endSize=8;strokeColor=#ff0000;" parent="eCB3eIl9l_GfIS7ZdLor-1" source="CAgU0GHQL7iny3bI01cw-3" edge="1">
          <mxGeometry x="-1" relative="1" as="geometry">
            <mxPoint x="576" y="995" as="targetPoint" />
          </mxGeometry>
        </mxCell>
        <mxCell id="CAgU0GHQL7iny3bI01cw-9" value="Osvojeno 32 000,00kn&amp;nbsp;" style="rounded=1;whiteSpace=wrap;html=1;arcSize=40;fontColor=#000000;fillColor=#ffffc0;strokeColor=#ff0000;" parent="eCB3eIl9l_GfIS7ZdLor-1" vertex="1">
          <mxGeometry x="272.5" y="890" width="160" height="50" as="geometry" />
        </mxCell>
        <mxCell id="CAgU0GHQL7iny3bI01cw-10" value="" style="edgeStyle=orthogonalEdgeStyle;html=1;verticalAlign=bottom;endArrow=open;endSize=8;strokeColor=#ff0000;entryX=0.5;entryY=0;entryDx=0;entryDy=0;" parent="eCB3eIl9l_GfIS7ZdLor-1" source="CAgU0GHQL7iny3bI01cw-9" target="CAgU0GHQL7iny3bI01cw-16" edge="1">
          <mxGeometry relative="1" as="geometry">
            <mxPoint x="330" y="980" as="targetPoint" />
          </mxGeometry>
        </mxCell>
        <mxCell id="CAgU0GHQL7iny3bI01cw-11" value="Osvojeno 1 000,00kn&amp;nbsp;" style="rounded=1;whiteSpace=wrap;html=1;arcSize=40;fontColor=#000000;fillColor=#ffffc0;strokeColor=#ff0000;" parent="eCB3eIl9l_GfIS7ZdLor-1" vertex="1">
          <mxGeometry x="520" y="1000" width="120" height="40" as="geometry" />
        </mxCell>
        <mxCell id="CAgU0GHQL7iny3bI01cw-12" value="" style="edgeStyle=orthogonalEdgeStyle;html=1;verticalAlign=bottom;endArrow=open;endSize=8;strokeColor=#ff0000;entryX=1;entryY=0.5;entryDx=0;entryDy=0;" parent="eCB3eIl9l_GfIS7ZdLor-1" source="CAgU0GHQL7iny3bI01cw-11" target="CAgU0GHQL7iny3bI01cw-16" edge="1">
          <mxGeometry relative="1" as="geometry">
            <mxPoint x="580" y="1100" as="targetPoint" />
          </mxGeometry>
        </mxCell>
        <mxCell id="CAgU0GHQL7iny3bI01cw-13" value="Osvojeno 0,00kn&amp;nbsp;" style="rounded=1;whiteSpace=wrap;html=1;arcSize=40;fontColor=#000000;fillColor=#ffffc0;strokeColor=#ff0000;" parent="eCB3eIl9l_GfIS7ZdLor-1" vertex="1">
          <mxGeometry x="676" y="1040" width="120" height="40" as="geometry" />
        </mxCell>
        <mxCell id="CAgU0GHQL7iny3bI01cw-14" value="" style="edgeStyle=orthogonalEdgeStyle;html=1;verticalAlign=bottom;endArrow=open;endSize=8;strokeColor=#ff0000;entryX=1;entryY=1;entryDx=0;entryDy=0;" parent="eCB3eIl9l_GfIS7ZdLor-1" source="CAgU0GHQL7iny3bI01cw-13" target="CAgU0GHQL7iny3bI01cw-16" edge="1">
          <mxGeometry relative="1" as="geometry">
            <mxPoint x="400" y="1090" as="targetPoint" />
            <Array as="points">
              <mxPoint x="736" y="1126" />
            </Array>
          </mxGeometry>
        </mxCell>
        <mxCell id="CAgU0GHQL7iny3bI01cw-15" value="" style="edgeStyle=orthogonalEdgeStyle;html=1;verticalAlign=bottom;endArrow=open;endSize=8;strokeColor=#ff0000;exitX=0.5;exitY=1;exitDx=0;exitDy=0;entryX=0;entryY=0;entryDx=0;entryDy=0;" parent="eCB3eIl9l_GfIS7ZdLor-1" source="eCB3eIl9l_GfIS7ZdLor-19" target="CAgU0GHQL7iny3bI01cw-16" edge="1">
          <mxGeometry relative="1" as="geometry">
            <mxPoint x="230" y="880" as="targetPoint" />
            <mxPoint x="312.5" y="550" as="sourcePoint" />
          </mxGeometry>
        </mxCell>
        <mxCell id="CAgU0GHQL7iny3bI01cw-16" value="" style="ellipse;html=1;shape=endState;fillColor=#000000;strokeColor=#ff0000;" parent="eCB3eIl9l_GfIS7ZdLor-1" vertex="1">
          <mxGeometry x="220" y="1100" width="30" height="30" as="geometry" />
        </mxCell>
        <mxCell id="JnbbbAoOG3Rg0xXQsoMX-0" value="Sva pitanja nisu odgovorena" style="text;html=1;align=center;verticalAlign=middle;resizable=0;points=[];autosize=1;" vertex="1" parent="eCB3eIl9l_GfIS7ZdLor-1">
          <mxGeometry x="455" y="300" width="170" height="20" as="geometry" />
        </mxCell>
        <mxCell id="JnbbbAoOG3Rg0xXQsoMX-1" value="Sva pitanja odgovorena" style="text;html=1;align=center;verticalAlign=middle;resizable=0;points=[];autosize=1;" vertex="1" parent="eCB3eIl9l_GfIS7ZdLor-1">
          <mxGeometry x="135" y="300" width="140" height="20" as="geometry" />
        </mxCell>
        <mxCell id="JnbbbAoOG3Rg0xXQsoMX-2" value="Korisnik je osvojio iznos praga" style="text;html=1;align=center;verticalAlign=middle;resizable=0;points=[];autosize=1;" vertex="1" parent="eCB3eIl9l_GfIS7ZdLor-1">
          <mxGeometry x="262.5" y="620" width="180" height="20" as="geometry" />
        </mxCell>
      </root>
    </mxGraphModel>
  </diagram>
  <diagram id="OyePeIfNpFB5VtUkLV20" name="Activity: Džoker">
    <mxGraphModel dx="1102" dy="614" grid="1" gridSize="10" guides="1" tooltips="1" connect="1" arrows="1" fold="1" page="1" pageScale="1" pageWidth="827" pageHeight="1169" math="0" shadow="0">
      <root>
        <mxCell id="RS__dCbyjntJlj3j8mh0-0" />
        <mxCell id="RS__dCbyjntJlj3j8mh0-1" parent="RS__dCbyjntJlj3j8mh0-0" />
        <mxCell id="RS__dCbyjntJlj3j8mh0-2" value="" style="ellipse;html=1;shape=startState;fillColor=#000000;strokeColor=#ff0000;" parent="RS__dCbyjntJlj3j8mh0-1" vertex="1">
          <mxGeometry x="240" y="30" width="30" height="30" as="geometry" />
        </mxCell>
        <mxCell id="RS__dCbyjntJlj3j8mh0-3" value="" style="edgeStyle=orthogonalEdgeStyle;html=1;verticalAlign=bottom;endArrow=open;endSize=8;strokeColor=#ff0000;" parent="RS__dCbyjntJlj3j8mh0-1" source="RS__dCbyjntJlj3j8mh0-2" edge="1">
          <mxGeometry relative="1" as="geometry">
            <mxPoint x="255" y="120" as="targetPoint" />
          </mxGeometry>
        </mxCell>
        <mxCell id="C2OhWkGEOBYgRaz6pQn--0" value="Igra prikaže poziv džokera" style="rounded=1;whiteSpace=wrap;html=1;arcSize=40;fontColor=#000000;fillColor=#ffffc0;strokeColor=#ff0000;" parent="RS__dCbyjntJlj3j8mh0-1" vertex="1">
          <mxGeometry x="195" y="120" width="120" height="40" as="geometry" />
        </mxCell>
        <mxCell id="C2OhWkGEOBYgRaz6pQn--1" value="" style="edgeStyle=orthogonalEdgeStyle;html=1;verticalAlign=bottom;endArrow=open;endSize=8;strokeColor=#ff0000;entryX=0.5;entryY=0;entryDx=0;entryDy=0;" parent="RS__dCbyjntJlj3j8mh0-1" source="C2OhWkGEOBYgRaz6pQn--0" target="sUK2TPSZTiB_NMb6Mb5v-18" edge="1">
          <mxGeometry relative="1" as="geometry">
            <mxPoint x="399" y="230" as="targetPoint" />
          </mxGeometry>
        </mxCell>
        <mxCell id="sUK2TPSZTiB_NMb6Mb5v-15" value="" style="ellipse;html=1;shape=endState;fillColor=#000000;strokeColor=#ff0000;" parent="RS__dCbyjntJlj3j8mh0-1" vertex="1">
          <mxGeometry x="345" y="830" width="30" height="30" as="geometry" />
        </mxCell>
        <mxCell id="sUK2TPSZTiB_NMb6Mb5v-16" value="Sustav Prikaže džokerov odgovor" style="rounded=1;whiteSpace=wrap;html=1;arcSize=40;fontColor=#000000;fillColor=#ffffc0;strokeColor=#ff0000;" parent="RS__dCbyjntJlj3j8mh0-1" vertex="1">
          <mxGeometry x="300" y="730" width="120" height="40" as="geometry" />
        </mxCell>
        <mxCell id="sUK2TPSZTiB_NMb6Mb5v-17" value="" style="edgeStyle=orthogonalEdgeStyle;html=1;verticalAlign=bottom;endArrow=open;endSize=8;strokeColor=#ff0000;" parent="RS__dCbyjntJlj3j8mh0-1" source="sUK2TPSZTiB_NMb6Mb5v-16" edge="1">
          <mxGeometry relative="1" as="geometry">
            <mxPoint x="360" y="830" as="targetPoint" />
          </mxGeometry>
        </mxCell>
        <mxCell id="sUK2TPSZTiB_NMb6Mb5v-18" value="Džoker zovi&amp;nbsp;" style="rhombus;whiteSpace=wrap;html=1;fillColor=#ffffc0;strokeColor=#ff0000;" parent="RS__dCbyjntJlj3j8mh0-1" vertex="1">
          <mxGeometry x="180" y="240" width="150" height="70" as="geometry" />
        </mxCell>
        <mxCell id="sUK2TPSZTiB_NMb6Mb5v-19" value="no" style="edgeStyle=orthogonalEdgeStyle;html=1;align=left;verticalAlign=bottom;endArrow=open;endSize=8;strokeColor=#ff0000;entryX=0.5;entryY=0;entryDx=0;entryDy=0;" parent="RS__dCbyjntJlj3j8mh0-1" source="sUK2TPSZTiB_NMb6Mb5v-18" target="sUK2TPSZTiB_NMb6Mb5v-21" edge="1">
          <mxGeometry x="-1" relative="1" as="geometry">
            <mxPoint x="420" y="340" as="targetPoint" />
          </mxGeometry>
        </mxCell>
        <mxCell id="sUK2TPSZTiB_NMb6Mb5v-20" value="yes" style="edgeStyle=orthogonalEdgeStyle;html=1;align=left;verticalAlign=top;endArrow=open;endSize=8;strokeColor=#ff0000;" parent="RS__dCbyjntJlj3j8mh0-1" source="sUK2TPSZTiB_NMb6Mb5v-18" edge="1">
          <mxGeometry x="-1" relative="1" as="geometry">
            <mxPoint x="255" y="350" as="targetPoint" />
          </mxGeometry>
        </mxCell>
        <mxCell id="sUK2TPSZTiB_NMb6Mb5v-21" value="Džoker PITAJ PUBLIKU&amp;nbsp;" style="rhombus;whiteSpace=wrap;html=1;fillColor=#ffffc0;strokeColor=#ff0000;" parent="RS__dCbyjntJlj3j8mh0-1" vertex="1">
          <mxGeometry x="340" y="350" width="160" height="80" as="geometry" />
        </mxCell>
        <mxCell id="sUK2TPSZTiB_NMb6Mb5v-22" value="no" style="edgeStyle=orthogonalEdgeStyle;html=1;align=left;verticalAlign=bottom;endArrow=open;endSize=8;strokeColor=#ff0000;entryX=0.5;entryY=0;entryDx=0;entryDy=0;" parent="RS__dCbyjntJlj3j8mh0-1" source="sUK2TPSZTiB_NMb6Mb5v-21" edge="1">
          <mxGeometry x="-1" relative="1" as="geometry">
            <mxPoint x="590" y="490" as="targetPoint" />
          </mxGeometry>
        </mxCell>
        <mxCell id="sUK2TPSZTiB_NMb6Mb5v-23" value="yes" style="edgeStyle=orthogonalEdgeStyle;html=1;align=left;verticalAlign=top;endArrow=open;endSize=8;strokeColor=#ff0000;" parent="RS__dCbyjntJlj3j8mh0-1" source="sUK2TPSZTiB_NMb6Mb5v-21" edge="1">
          <mxGeometry x="-1" relative="1" as="geometry">
            <mxPoint x="420" y="480" as="targetPoint" />
          </mxGeometry>
        </mxCell>
        <mxCell id="1CPUDCX8xM3nb3_aI3VU-0" value="&lt;span&gt;Džoker ZOVI&amp;nbsp;&lt;/span&gt;" style="rounded=1;whiteSpace=wrap;html=1;arcSize=40;fontColor=#000000;fillColor=#ffffc0;strokeColor=#ff0000;" parent="RS__dCbyjntJlj3j8mh0-1" vertex="1">
          <mxGeometry x="190" y="350" width="120" height="40" as="geometry" />
        </mxCell>
        <mxCell id="1CPUDCX8xM3nb3_aI3VU-1" value="" style="edgeStyle=orthogonalEdgeStyle;html=1;verticalAlign=bottom;endArrow=open;endSize=8;strokeColor=#ff0000;" parent="RS__dCbyjntJlj3j8mh0-1" source="1CPUDCX8xM3nb3_aI3VU-0" target="sUK2TPSZTiB_NMb6Mb5v-16" edge="1">
          <mxGeometry relative="1" as="geometry">
            <mxPoint x="130" y="510" as="targetPoint" />
          </mxGeometry>
        </mxCell>
        <mxCell id="1CPUDCX8xM3nb3_aI3VU-2" value="&lt;span&gt;Džoker PITAJ PUBLIKU&amp;nbsp;&lt;/span&gt;" style="rounded=1;whiteSpace=wrap;html=1;arcSize=40;fontColor=#000000;fillColor=#ffffc0;strokeColor=#ff0000;" parent="RS__dCbyjntJlj3j8mh0-1" vertex="1">
          <mxGeometry x="360" y="480" width="120" height="40" as="geometry" />
        </mxCell>
        <mxCell id="1CPUDCX8xM3nb3_aI3VU-3" value="" style="edgeStyle=orthogonalEdgeStyle;html=1;verticalAlign=bottom;endArrow=open;endSize=8;strokeColor=#ff0000;" parent="RS__dCbyjntJlj3j8mh0-1" source="1CPUDCX8xM3nb3_aI3VU-2" edge="1">
          <mxGeometry relative="1" as="geometry">
            <mxPoint x="379" y="726" as="targetPoint" />
          </mxGeometry>
        </mxCell>
        <mxCell id="1CPUDCX8xM3nb3_aI3VU-4" value="&lt;span&gt;Džoker 50:50&amp;nbsp;&lt;/span&gt;" style="rounded=1;whiteSpace=wrap;html=1;arcSize=40;fontColor=#000000;fillColor=#ffffc0;strokeColor=#ff0000;" parent="RS__dCbyjntJlj3j8mh0-1" vertex="1">
          <mxGeometry x="530" y="490" width="120" height="40" as="geometry" />
        </mxCell>
        <mxCell id="1CPUDCX8xM3nb3_aI3VU-6" value="" style="edgeStyle=orthogonalEdgeStyle;html=1;verticalAlign=bottom;endArrow=open;endSize=8;strokeColor=#ff0000;entryX=1;entryY=0.25;entryDx=0;entryDy=0;" parent="RS__dCbyjntJlj3j8mh0-1" source="1CPUDCX8xM3nb3_aI3VU-4" target="sUK2TPSZTiB_NMb6Mb5v-16" edge="1">
          <mxGeometry relative="1" as="geometry">
            <mxPoint x="550" y="736" as="targetPoint" />
            <mxPoint x="591" y="530" as="sourcePoint" />
            <Array as="points">
              <mxPoint x="570" y="740" />
            </Array>
          </mxGeometry>
        </mxCell>
      </root>
    </mxGraphModel>
  </diagram>
</mxfile>
